# xmcd
#
# Track frame offsets: 
#        150
#        24678
#        42206
#        58261
#        69599
#        85906
#        102202
#        120911
#        139997
#        151804
#        169958
#        183155
#
# Disc length: 2721 seconds
#
# Revision: 0
# Processed by: cddbd v1.5.2PL0 Copyright (c) Steve Scherf et al.
# Submitted via: ExactAudioCopy v0.95b4
#
DISCID=9d0a9f0c
DTITLE=Die Batseklatsers - Die Batseklatsers Im Lechtal
DYEAR=2002
DGENRE=
TTITLE0=Hier Im Lechtal
TTITLE1=Houtmannpolka
TTITLE2=Sneewalzer
TTITLE3=Holzhackerboam
TTITLE4=Bierkillerpolka
TTITLE5=Polkapower
TTITLE6=Sterne Am Himmel
TTITLE7=Alpenpolka
TTITLE8=Scheizegal
TTITLE9=Sloveense Bauertanz
TTITLE10=Paul Und Sein Gaul
TTITLE11=Hirtenlied
EXTD=
EXTT0=
EXTT1=
EXTT2=
EXTT3=
EXTT4=
EXTT5=
EXTT6=
EXTT7=
EXTT8=
EXTT9=
EXTT10=
EXTT11=
PLAYORDER=
